<svg xmlns="http://www.w3.org/2000/svg" width="16" height="16" viewBox="0 0 16 16" fill="none">
    <path d="M8.81333 1.61072C8.57195 1.42486 8.2742 1.32726 7.96962 1.33418C7.66505 1.34109 7.37203 1.4521 7.13933 1.64872L2.47267 5.64805C2.32453 5.77325 2.20549 5.92926 2.12386 6.1052C2.04222 6.28114 1.99995 6.47277 2 6.66672V12.6667C2 13.0203 2.14048 13.3595 2.39052 13.6095C2.64057 13.8596 2.97971 14.0001 3.33333 14.0001H12.6667C13.0203 14.0001 13.3594 13.8596 13.6095 13.6095C13.8595 13.3595 14 13.0203 14 12.6667V7.76405M10 14V8.66668C10 8.48987 9.92976 8.3203 9.80474 8.19527C9.67971 8.07025 9.51014 8.00001 9.33333 8.00001H6.66667C6.48986 8.00001 6.32029 8.07025 6.19526 8.19527C6.07024 8.3203 6 8.48987 6 8.66668V14M10 4.00001H14M12 2.00001V6.00001" stroke="white" stroke-width="1.33" stroke-linecap="round" stroke-linejoin="round"/>
</svg>